# xmcd
#
# Track frame offsets:
#	150
#	17410
#	38586
#	54735
#	70157
#	87513
#	106001
#	124133
#	138728
#	155290
#	171831
#	186707
#	205315
#	223711
#	241079
#
# Disc length: 3488 seconds
#
# Revision: 0
# Processed by: cddbd v1.5.1PL2 Copyright (c) Steve Scherf et al.
# Submitted via: audiograbber 1.83.01
#
DISCID=d40d9e0f
DTITLE=Chartbuster - cb60327
DYEAR=1900
DGENRE=Karaoke
TTITLE0=Elam, Katrina - No End In Sight
TTITLE1=Montgomery, John Michael - Goes Good With Beer
TTITLE2=Shelton, Blake - Some Beach
TTITLE3=Clark, Terri - One Of The Guys
TTITLE4=Keith, Toby - Stays In Mexico
TTITLE5=Rascal Flatts - My Worst Fear
TTITLE6=Urban, Keith - You Look Good In My Shirt
TTITLE7=Britt, Catherine - Up Side Of Being Down
TTITLE8=Lonestar - Mr Mom
TTITLE9=Diamond Rio - Can't You Tell
TTITLE10=Jenkins - Getaway Car
TTITLE11=Emerson Drive - November
TTITLE12=Willmon, Trent - Dixie Rose Deluxe's Honky Tonk
TTITLE13=Dean, Roxie - A Soldier's Wife
TTITLE14=Notorious Cherry Bombs - It's Hard To Kiss The Lips At Night That Chew
TTITLE14=Your A$$ Out All Day Long
EXTD=
EXTT0=
EXTT1=
EXTT2=
EXTT3=
EXTT4=
EXTT5=
EXTT6=
EXTT7=
EXTT8=
EXTT9=
EXTT10=
EXTT11=
EXTT12=
EXTT13=
EXTT14=
PLAYORDER=
